<?xml version="1.0" encoding="utf-8"?>
<!-- Generator: Adobe Adobe Illustrator 24.2.0, SVG Export Plug-In . SVG Version: 6.00 Build 0)  -->
<svg version="1.1" id="Layer_1" xmlns="http://www.w3.org/2000/svg" xmlns:xlink="http://www.w3.org/1999/xlink" x="0px" y="0px"
	 viewBox="0 0 1728 1296" style="enable-background:new 0 0 1728 1296;" xml:space="preserve">
<style type="text/css">
	
		.st0{display:none;fill:url(#SVGID_1_);stroke:#000000;stroke-width:3;stroke-linecap:round;stroke-linejoin:round;stroke-miterlimit:10;}
	.st1{fill:#D3F8E2;stroke:#888985;stroke-width:3;stroke-linecap:round;stroke-linejoin:round;stroke-miterlimit:10;}
	.st2{fill:#CFE8FA;stroke:#98D7F3;stroke-width:2;stroke-miterlimit:10;}
	.st3{fill:#F8F9F4;stroke:#888985;stroke-width:2;stroke-miterlimit:10;}
	.st4{fill:none;stroke:#3C4546;stroke-width:2;stroke-miterlimit:10;}
	.st5{fill:none;stroke:#3C4546;stroke-miterlimit:10;}
	.st6{fill:none;}
	.st7{opacity:0.2314;fill:none;}
	.st8{opacity:0.4;fill:#FFFF00;stroke:#3C4546;stroke-miterlimit:10;}
	.st9{opacity:0.4;fill:#0000FF;stroke:#3C4546;stroke-miterlimit:10;}
	.st10{opacity:0.4;fill:#FF0000;stroke:#3C4546;stroke-miterlimit:10;}
	.st11{opacity:0.4;fill:#662D91;stroke:#3C4546;stroke-miterlimit:10;}
	.st12{opacity:0.4;fill:#FFB700;stroke:#3C4546;stroke-miterlimit:10;}
	.st13{opacity:0.4;fill:#00D4C9;stroke:#3C4546;stroke-miterlimit:10;}
</style>
<g>
	<path class="st1" d="M1440.81,980.58c4.47-16.44,3.43-35.83-4.06-53.47c-17.01-40.11-28.78-81.69-15.03-124.96
		c9.42-29.65-2.82-52.76-15.73-76.79c-12.86-23.95-27.68-46.07-51.06-61.34c-39.48-25.81-48.33-76.65-10.75-110.34
		c15.42-13.83,30.59-29.41,41.33-47.99c12.78-22.12,16.6-43.75,5.76-69.23c-13.21-31.07-32.69-56.16-56.61-79.11
		c-16.92-16.23-38.63-18.36-58.95-19.33c-22.02-1.05-39.43-4.38-47.85-29.18c1.97-15.57,16.04-25.81,27.34-38.27
		c22.3-24.59,24.01-36.03,7.5-63.57c-9.26-15.44-5.02-29.43,0.47-43.53c9.11-23.4,6.35-30.17-18.05-30.13
		c-12.35,0.02-20.04-5.18-25.28-13.52c-30.2-48.07-74.09-39.35-120.35-33.94c-55.21,6.46-109.32,13.61-164.4-17.58
		C888.98,42.2,834,39.24,777.73,43.86C717.4,48.82,666,70.68,614.57,97.13c-35.01,18-60.17,49.07-92,71.37
		c-8.13,5.7-16,11.43-25.31,15.78c-24.21,11.32-34.56,32.6-25.18,58.12c12.29,33.47,14.43,67.35,15.47,102.36
		c0.78,26.52-9.31,47.01-26.59,63.5c-29.25,27.9-35.21,62.41-35.54,100c-0.24,26.57,19.72,43.92,28.25,66.42l2.55,2.55
		c24.9,25.61,44.33,53.34,58.44,82.91c0.25,0.38,0.43,0.77,0.53,1.15c22.78,48.29,31.45,101.49,26.55,158.49
		c-2.99,34.86-2.15,70.01-7.78,105.03c-5.24,32.62,10.35,48.54,39.56,61.4c31.65,13.93,62.52,17.19,97.32,10.91
		c49.39-8.91,98.26,1.55,142.48,25.16c24.35,13,39.14,38.07,53.52,60.97c29.6,47.14,66.88,88.23,99.95,132.59
		c7.08,9.5,17.05,15.09,28.11,14.95c24.71-0.3,49.19,2.17,74.26-3.85c23.86-5.74,48.16,0.82,71.47,11.43
		c30.59,13.92,60.08,32.19,94.29,35.94c47.63,5.23,96.27,8.78,142.61-3.53c27.02-7.18,40.44-35.3,54.34-59.83
		c18.31-32.32,7.99-65.08,4.14-97.23C1430.66,1068.82,1428.71,1025.06,1440.81,980.58z"/>
	<g>
		<path class="st2" d="M733.7,638.68c-1.45-0.49-4.23-1.2-6.94-0.49c-2.71,0.71-3.99,2.7-5.75,4.15
			c-1.76,1.45-15.64,12.27-18.36,13.39c-2.59,1.07-8.09,1.92-11.21,2.83c-3.46,1.02-7.81,1.22-10.22-1.77
			c-2.42-2.99-9.99-9.11-11.31-17.72c-1.32-8.61-4.3-18.08-5.96-21.19c-1.66-3.11-2.12-4.46-7.26-4.65c-5.14-0.18-9.08-0.97-11.39,2
			s-3.47,3.86-2.22,10.71c1.44,7.88,1.95,12.83,3.88,19.41c1.93,6.58-1.32,2.05,4.1,13.14s15.24,28.8,15.24,28.8l1.7,2.72l0.19,0.62
			l7.21,18.68c0,0,1.89,3.26,4.99-1.81c3.1-5.07,5.23-18.33,5.51-22.47c0.28-4.14,7.73-6.96,8.69-7.06
			c0.97-0.1,16.48-5.24,20.14-9.38c3.66-4.14,16.43-15.44,18.59-20.06C735.51,643.93,735.15,639.17,733.7,638.68z M724.45,650.38
			c-3.37,7.35-26.65,19.78-35.77,24.29c-9.12,4.51-8.37,7.1-9.22,16.17c-0.85,9.07-2.37,2.37-2.37,2.37l-18.05-34.88l-0.88-0.95
			c-0.16,0.1-2.09-4.29-2.09-4.29s-5.39-21.44-6.79-28.2c-1.39-6.76,5.16-6.19,7.77-4.28c2.62,1.91,5.22,13.39,6.92,20.23
			c1.7,6.83,9.49,18.76,15.22,22.1s11.41,2.03,18.33,0.2c6.92-1.83,20.64-10.82,22.95-13.42
			C722.79,647.11,727.82,643.03,724.45,650.38z"/>
	</g>
	<path class="st3" d="M624.27,435.9c1.85-3.23,5.93-11.85,5.93-11.85s24.03-49.95,28.76-49.95c4.73,0,109.24,71.33,112.59,71.33
		s53.15-9.31,53.15-9.31l1-0.25c3.84,0.13,55.71-3.35,67.37,1.77c4.95,2.18,4.75,23.43,5.59,25.92v0.25
		c0.04,0.16,1.31,2.61,1.52,3.03c3.1,6.26,13.11,44.36,15.18,43.4c2.2-1.02,13.24,2.84,16.76-1.92c3.52-4.77,17.65-23.83,18-32.38
		c0.4-9.62,0.29-31.29-0.11-35.1c-0.41-3.8,1.32-61.66,0.51-69.2v-1c1.29-9,2.12-49.97,1.48-45.46
		c-0.51,3.59,8.41-54.86,13.73-58.52c7.66-5.27,10.16-3.03,13.19-3.95c3.03-0.92,13.85-2.79,14.6-7.97
		c0.75-5.19,11.31-57.92,9.2-61.23c-2.11-3.31-37.53-43.25-42.61-42.1c-5.08,1.14-84.38,10.1-84.02,11.27
		c0.36,1.17,5.48,100.22,3.88,99.97c-1.6-0.25-58.82-11.71-62.23-14l-0.25-0.25c-3.39-2.93-19.99-19.28-22.44-23.44
		c-2.31-3.92-162.79-26.97-163.14-28.3c-0.35-1.33-48.54,10.59-54.23,13.24c-20.23,9.43,48.55,31.22,48.55,49.49c0,0,0,0,0,0
		c0,14.3-4.77,60.39-8,62.39c-3.23,2-46.77,37.82-46.77,37.82s-20.95-0.61-23.61,11.58c-2.66,12.19-4.25,29.34-1.35,37
		s10.19,17.14,11.43,24.51s3.1,9.13,2.23,20.13c-0.87,11-3.85,27.33-5.62,31.38s-2.6,5.3-2.6,5.3l0.07,2.29
		c0,0,1.61,16.79,5.49,16.57c3.88-0.22,8.59,1.59,10.73-7.05c2.15-8.64,12.02-26.12,12.82-26.91c0.79-0.79,3.99-6.78,9.13-9.13
		c5.14-2.35,24.33-14.64,27.23-18.26C620.28,443.32,621.7,439.78,624.27,435.9z"/>
	<path class="st3" d="M1028.02,801.82c0,0,2.35,25.15,5.23,30.62c2.88,5.47,29.37,54.04,31,53.03c1.62-1.01,13.35-2.17,14.19-4.29
		s43.18-19.99,41.64-27.26c-1.54-7.28-30.62-67.04-30.62-67.04s-23.52-46.06-20.78-49.4s31.55-51.29,36.68-55.11
		c5.13-3.82,18.02-11.12,19.7-14.83s1.81-9.26,0-13.01s-26.57-53.82-28.6-56.46c-2.04-2.63,0.68-6.35,1.18-6.96
		c0.51-0.62,6.39-21.9,6.01-25.11c-0.38-3.21-5.11-14.52-7.84-14.16s-31.47-1.5-34.16,0.02c-2.69,1.52-3.54,11.98-6.56,15.75
		c-3.02,3.76-45.98,46.67-46.47,43.29c-0.32-2.23-16.35-18.34-28.88-30.17c-6.51-6.15-12.07-11.15-13.99-12.44
		c-3.21-2.16-23.27-12.68-24.99-9.26c-1.71,3.43-20.72,12.82-20.72,12.82s3.06,30.75,4.12,33.54c1.4,3.68,34.31,52.78,34.76,57.93
		s9.11,42.96,10.5,46.42c1.39,3.46,6.51,26,4.79,34.1c-1.72,8.09-9.87,45.35-4.93,45.74c4.94,0.39,7.06,2.44,9.31-0.68
		c2.25-3.13,4.62-7.91,9.17-7.39c5.83,0.66,8.38-1.36,6.98,8.35c-1.65,11.49,32.15,7.51,32.96,9.96L1028.02,801.82z"/>
	<path class="st4" d="M716.08,389.51c0,0,5.63,14.49,5.45,15.99"/>
	<path class="st4" d="M983.07,754.9c0,0,13.74-1.9,20.08-0.86s20.61,1.71,25.29,1.38c4.67-0.34,37.72-7.52,40.06-8.26"/>
	<path class="st4" d="M598.16,220.89c0,0,55.94-0.42,63.7-1.32"/>
	<path class="st4" d="M662.02,308.04c0,0-1.08-8.62-2.97-14.36c-1.9-5.74-12.45-38.15-10.73-42.26c1.71-4.11,6.98-9.31,12.38-10.9
		c5.4-1.58,14.87-3.45,16.51-3.36"/>
	<path class="st4" d="M718.8,248.32c0,0-33.86-8.83-38.45-10.11c-6.65-1.86-16.27-6.98-17.17-11.72c-0.9-4.75-1.32-22.62-1.32-22.62
		"/>
	<path class="st4" d="M760.47,202.72c0,0,11.66,16.13,11.66,23.54s3.16,18.62,8.72,20.64c5.57,2.02-2.19,13.84-4.68,20.36"/>
	<path class="st4" d="M1070.04,317.92c0,0,1.62-12.27,6.94-19.39c5.32-7.12,7.44-11.05,9.26-19.1c1.82-8.04-2.47-25.18,4.5-30.6
		c8.69-6.75,5.91-16.17,5.4-20.02"/>
	<path class="st4" d="M1060.56,551.73c0,0-22.4-4.84-26.61,1.84c-3.42,5.42-8.9,22.74-13.56,27.96s-4.72,7.41-10.11,7.88
		c-5.7,0.5-61-0.88-64.82,0.07"/>
	<path class="st4" d="M1053.34,622.75c0,0-1.67-56.65,0.05-60.58c1.72-3.93,8.59-2.81,9.53-2.73"/>
	<path class="st4" d="M1078.28,613.85c0,0-10.15-2.38-10.15-6.9c0-4.52,2.09-42.3,2.09-44.77"/>
	<path class="st4" d="M1140.61,627.53c0,0-9.46-5.3-10.89-9.37c-1.43-4.07,0.91-10.57-3.56-11.38c-4.46-0.81-21.6,0.21-26.17,2.99
		c-4.56,2.78-17.49,5.01-21.48,3.19"/>
	<path class="st4" d="M1140.38,655.42c0,0,2.01-3.92,1.42-10.38c-0.58-6.47-3.65-18.96,0.72-19.37c7.77-0.73,8.56,0.03,15.64,0.03
		c7.08,0,15.63,5.18,20.62,2.7c4.99-2.48,5.3-8.49,9.1-8.96"/>
	<path class="st4" d="M660.46,602.11c0,0-25.84,20.41-27.63,14.96c-1.79-5.45-5.35-14.3-2.1-22.39s6-11.17,4.24-17.6
		c-1.76-6.43-11.69-38.3-13.26-44.05s-5.07-8.08-1.07-12.4c4-4.32,4.47-7.05,2.57-13.47c-1.91-6.42-16.56-24.36-18.18-30.58
		c-1.38-5.29-5.49-21.36-0.37-32.09c5.11-10.73,3.94-17.73,4.52-19.98"/>
	<path class="st4" d="M734.11,632.47c0,0-3.29,1.65-7.91,4.22c-6.85,3.81-16.62,9.62-22.84,15.02c-5.93,5.15-7.83,3.66-14.63,4.21
		c-6.61,0.53-10.06-4.35-12.53-11.31c-2.48-6.96-8.23-26.67-9.71-30.83s-13.23-24.3-13.23-24.3s17.51-25.12,26.65-21.46
		c9.14,3.66,16.23,12.15,22.88,11.64c6.65-0.51,45.08,0.01,46.91,4.93"/>
	<path class="st4" d="M790.94,691.97c0,0,16.8-25.24,17.48-33.99c0.79-10.21-5.17-47.5,0-60.25c3.92-9.65,9.55-16.79,9.38-19.9
		s0-11.48,0-11.48"/>
	<path class="st4" d="M734.11,916.26c0,0,6.35-2.05,8.02-10.9c1.67-8.85-2.41-81,0.96-83.68c3.37-2.68,18.28-16.99,18.28-16.99
		s11.65-4.54,12.58-15.54c0.82-9.66-0.63-89.52-3.92-92.5c-3.29-2.98,13.16-3.39,19.56-3.39s12.88,6.06,18.03,2.66
		c5.15-3.4,20.52-6.85,23.72-4.53c3.2,2.32,17.02,6.08,18.65,15.19s-7.1,16.97-10.33,27.15c-3.22,10.18-10.99,34.94-10.99,34.94"/>
	<path class="st4" d="M1182.12,775.12c0,0-21.1-5.01-21.84-11.33c-0.32-2.72-0.24-4.04,0-8.38"/>
	<path class="st4" d="M1247.34,860.91c0,0-21.1-35.65-21.8-44.19c-0.61-7.48-1.36-23.96-6.03-30.66
		c-3.93-5.64-11.24-15.46-18.93-15.09c-7.69,0.37-19.26,0.24-18.85,6.08c0.41,5.84,5.32,10.86,1.95,17.48
		c-3.37,6.62-5.82,13.48-5.82,13.48"/>
	<path class="st4" d="M901.55,855.46c0,0-4.72-19.55-1.88-24.14s5.1-10.87,8.82-14.89c3.71-4.02,13.64-15.31,16.91-20.81
		c3.27-5.5,6.01-10.82,6.65-15.61c0.64-4.79,3.32-26.61,3.32-30.93s-1.55-8.81,0.83-10.43c2-1.36,3.57-3.15,4.15-4.93"/>
	<path class="st4" d="M817.78,1024.26c0,0,12.78-8.84,13.19-19.4c0.5-12.9-4.49-33.83,0-41.93c4.49-8.09,0.18-19,7.13-24.96
		c6.95-5.96,18.86-13.37,22.46-23.18c3.6-9.81,4.35-36.73,14.62-41c10.27-4.28,29.24-19.97,29.24-19.97s12.86-17.05,20.25-8.06
		c0,0,0,0,0,0c8.27,10.06,7.14,12.92,12.19,30.17c5.05,17.25,1.08-20.56,3.19-25.07c2.33-4.98,1.51-6.54,2.83-11.2
		c1.32-4.67-17.96,5.57-17.96,5.57"/>
	<path class="st4" d="M910.22,306.04c0,0-5.72,6.43-7.68,9.03c-1.96,2.6-5.2,0.57-11.73-0.4c-6.53-0.97-8.79-0.23-19.1,3.92"/>
	<path class="st4" d="M923.07,287.24c0,0,0.75,14.47-8.38,18.16s-7.95-9.63-9.16-14.58"/>
	<path class="st4" d="M894.72,187.6c0,0-1.65,42.7-3.41,50.9c-3.32,15.44-11.92,3.92-12.89,12.18c-1.51,12.87-2.23,13.97,2.99,18.75
		c5.22,4.78,20.47,24.54,24.13,21.4c6.22-5.34,7.44-9.9,12.49-6.16c5.62,4.16,5.22,3.11,9.54-1.6c4.32-4.71,11.09-7.89,17.05-5.47
		c5.19,2.1,16.78-18.91,18.57-20.48c1.79-1.57,5.64-0.16,10.13-5.03c2.39-2.59,7.01-13.19,7.39-13.87"/>
	<path class="st4" d="M1189.76,178.65c0,0-30.76-4.37-40.51,0.84c-9.75,5.21-21.85,14.64-27.71,23.1
		c-5.86,8.46-18.48,28.72-25.4,26.23s-40.94-10.73-46.44-16.22c-6.2-6.2-7.68-6.69-12.29-0.99c-4.6,5.7-23.13,8.94-30.81,14.17
		c-6.08,4.15-17.92,14.57-25.92,12.43s-1.67-17.1-6.41-22.31c-3.92-4.32-15.46-15.46-23.29-15.01s-13.45,0.84-17.71-1.35
		s-9.97-11.03-16.74-10.78c-6.77,0.25-10.69-1.12-20.67-1.12c-8.13,0-23.95-7.08-28.12-14.4s-13.39-16.15-16.32-16.31
		c-2.93-0.15-21.09-9.19-25.7-5.6c-4.62,3.59-5.05,10.75-13.75,8.58s-44.72-8-48.75-8.58"/>
	<path class="st4" d="M859.01,387.93c0,0,14.41,3.64,15.32-1.56c1.44-8.26,8.97-16.51,16.37-17.27"/>
	<path class="st4" d="M804.46,394.29c0,0,49.58-13.8,54.12-7.01c3.85,5.76,23.16,32.87,21.59,44.06"/>
	<path class="st4" d="M968.56,682.54c0.39-11.41,0.57-28.38-1.74-32.14c-2.31-3.76-9.44-13.92-10.19-18.89
		c-0.75-4.97-5.39-19.24-7.44-24.49s-6.11-11.03-3.74-17.54c2.37-6.51,4.33-27.75-2.45-33.38c-7.41-6.15-19.03-40.61-17.95-48.96
		c1.08-8.35,3.09-26.47,0.22-31.43c-2.86-4.96-13.99-17.55-17.49-20.81c-3.5-3.25-7.78-9.34-7.49-15.21s6.13-42.53,2.66-50.26
		c-3.47-7.73-11.01-15.71-12.4-20.82c-1.39-5.12,0.44-18.53-3.42-23.1c-3.86-4.58-10.13-9.48-9.44-14.46
		c0.69-4.98-14.1-24.87-20.84-28.62c-6.47-3.6-43.13-14.18-51.07-15.95c-7.83-1.75-20.03-15.76-29.62-19.21
		c-7.74-2.78-33.95-14.13-36.82-13.58c-2.88,0.55-20.5-4.72-20.54-5.37"/>
	<path class="st4" d="M968.56,701.36c0,0-0.11-1.9-0.11-13.32"/>
	<path class="st4" d="M1029.98,801.08c0,0,1.35-10.39,0.64-13.81c-0.62-3.01-6.63-16.02-3.14-19.2c0,0,3.02-3.65,1.79-9.23
		c-1.23-5.58-6.47-25.16-11.86-32.25c-3.28-4.32-8.42-10.88-9.05-14.43c-0.74-4.17-2.03-9.84-1.64-13.31
		c0.39-3.46-8.55-22.18-11.56-26.71c-3.01-4.53-16.71-24.19-19.76-23.74s34.1-17.06,37.16-22.74"/>
	<path class="st4" d="M1040.59,818.91c0,0-10.03-12.06-10.61-17.83c-0.58-5.77-30.28-10.24-34.49-9.87"/>
	<path class="st4" d="M1365.77,1266.19c0,0,2.31-11.64-8.96-10.39c-11.27,1.24-24.57,4.58-28.55-0.72
		c-3.98-5.29-8.81-11.42-12.18-16.39c-3.54-5.22-12.59-24.65-14.73-31.38c-5.55-17.46-27.09-20.2-27.09-20.2
		s-24.16-1.61-37.14-11.17c-13.57-9.99-10.73-7.26-22.97-8.31c-10.7-0.91-23.38-11.9-25.57-19.22c-2.18-7.33-5.84-14.52-8.82-17.22
		c-2.98-2.71-11.92-12.13-14.17-15.76c-2.25-3.63-19.26-33.42-18.76-38.57c0.5-5.15,7.54-24.55,7.54-31.54s-0.69-25.29-7.59-30.35
		c-6.9-5.06-36.07-32.51-40.84-36.92s-21.59-16.48-24.03-19.69c-1.7-2.24-16.77-56.49-16.22-61.75c0.55-5.26,2-21.48,3.97-24.97"/>
	<path class="st4" d="M541.76,153.77c0,0,52.17,28.11,51.35,38.78c-0.83,10.66-0.23,19.04,2.84,23.7s-0.23,15.29,2.57,18.08
		c2.79,2.79,32.76,11.39,32.2,16.1c-0.56,4.71-2.9,3.32-3.18,12.05s2.94,65.68,2.94,65.68"/>
	<g>
		<path class="st2" d="M989.76,785.59c-4.15-0.2-4.25,0.35-15.15,10.01c-12.38,10.97-14.23,11.09-19.75,18.55l-3.79,4.17
			c0,0-1.54,19.75,4.19,19.75c7.47,0,12.4,2.84,17.31-7.17c4.91-10.01,18.39-36.11,18.39-36.11S993.91,785.79,989.76,785.59z
			 M981.81,799.32c-0.32,2.07-3.37,5.02-7.66,11.78c-4.29,6.76-2.43,7.49-5.51,15.07c-3.07,7.58-3.16,5.28-6.77,5.7
			s-4.5-12.85-4.5-12.85s0.03-1.28,2-2.44c1.52-0.89,14.83-12.19,18.32-15.99C980.2,797.86,982.13,797.26,981.81,799.32z"/>
	</g>
	<path class="st4" d="M515.56,660.46C528,650,539,637,541,620c1-3,1-7,3-10c6-10,18-20,10-32c-3-4-12-5-12-11c-2-20,4-40,5-60
		c1-7,1-15,4-22c9-15,15-31,30-40c19-12,41-25,38-48c0-9-4-18-6-28c-2-13,3-24,11-34c4-4,7-7,11-11c10-9,21-15,34-18c15-4,31-2,46-3
		c1-1,2-3,2-5c2-20-4-41,5-59c14-12,26-26,40-39c1-1,3-3,3-5c0-49-6-98-9.07-146.58"/>
	<path class="st4" d="M715.6,302.43c0,0,9.26,46.11,21.52,49.94c5.94,1.85,13.95,19.63,14.64,20.46c0.78,0.94,6.42,7.74,10.71,9.97
		c1.07,0.38,6.59,19.6,6.25,24.42c-0.24,3.41,0.35,16.39-1.63,29.05c-1.92,12.27-9.47,32.01-2.38,41.89s-1.41,9.81-1.41,25.41
		s2.74,39.17,9.42,47.36s13.06,6.28,21.84,6.28s23.22,9.12,23.22,9.12s40.99-0.45,46.57,3.09s16.67,25.83,19.4,34.03
		c2.73,8.19,22.39,41.72,22.05,48.9c-0.51,10.85-4.93,57.97,3.9,61.96c8.83,3.99,17.7,15.72,25.11,17.41
		c10.8,2.47,23.38,2.03,25.03,0.52c1.65-1.51-1.23-30.53,8.69-30.87c11.66-0.4,52.3-21.24,57.43-23.71
		c5.13-2.47,29.46-4.22,32.07-3.56c2.61,0.66,13.13-14,18.84-14s15.78-3.04,15.78,3.05s2.56,38.76,9.93,44.29
		c7.37,5.53,32.08,18.91,36.66,19.86s18.91,4.73,20.11,9.42c1.2,4.68,5.6,15.17-1.78,23.16c-7.38,7.99-50.81,47.61-56.1,52.13
		c-5.28,4.52-35.24,15.07-39.33,14.01c-4.09-1.06,8.56,42.02,7.6,45.11c-0.96,3.08,19.37-5.75,20.36-7.13"/>
	<path class="st4" d="M1061.84,826.03l-5.05-5.66c0,0-8.41-5.27-16.2-1.46c-6.48,3.17-21.79,30.47-32.5,41.18
		c-8.72,8.72-7.06,6.14-15.31,8.47c-8.25,2.33-4.55,2.08-11-1.34c-7.4-3.92-21.14-17.05-18.13-20.06"/>
	<path class="st4" d="M1103.42,976.04c0,0-6.45,55.97-6.25,61.09c0.2,5.29-0.17,8.55-2.55,10.34"/>
	<path class="st4" d="M1081.91,958.37c0,0-9.33,0.26-13.1-2.38c-3.78-2.64-30.11-23.35-34.53-22.92
		c-4.41,0.44-12.73,0.85-16.56,1.23c-3.83,0.38-11.03-1.96-11.45-5.59c-0.42-3.62-4.07-15.82-8.66-15.13
		c-4.59,0.69-9.98,5.9-12.9,6.84c-2.92,0.94-17.25,6.43-22.71,6.92c-5.47,0.5-6.51-0.13-7.9,1.83c-1.4,1.96-0.96,5.31-0.74,7.72
		c0.22,2.42,0.68,16.83,5.25,17.44s33.95-2.28,37.13-4.15s21.04-14.5,21.9-15.89"/>
	<path class="st4" d="M1208.57,1166.35c0,0,4.75,8.11,1.54,16.37c0,0-3.71,7.75-3.71,13.35s0.07,12.65-2.02,15.07
		c-2.09,2.42-12.61,27.33-13.61,30.07c-1,2.74-7.33,16.3-9.54,16.43"/>
	<path class="st4" d="M800.32,283.94c0,0-10.38,38.26-4.59,50.27c5.79,12.01,4.91,27.03,5.67,43.72c0.77,16.69,7.88,24.87-2.67,26.7
		c-10.55,1.84-29.28,2.59-29.28,2.59"/>
	<path class="st4" d="M1257.01,260.45c0,0-37.51,25.88-44.41,39.49c-6.9,13.61-2.84,36.91-11,41.7
		c-9.62,5.65-24.67,12.54-23.74,21.3c1.05,9.9,5.22,18.83-1.02,27.38c-6.23,8.55-28.69,38.44-37.48,46.04s-18.52,13.4-18.52,22.41
		c0,9.01-13.3,50.88-4.77,59.42c8.13,8.13,11.97,24.41,7.63,33.05c-3.74,7.45-5.62,9.63-12.57,13.79
		c-5.57,3.33-18.23,11.94-22.11,14.26s-7.1,15.61-7.66,23.65c-0.32,4.59-3.56,9.52-3.56,14.23c0,4.72-1.08,40.12-0.91,42.89"/>
	<path class="st4" d="M768.76,694.87c0,0-15.88-36.12-23.05-40.28c-7.17-4.15-9.72-16.01-11.6-22.11
		c-2.08-6.75,15.7-3.23,15.13-13.04c-0.52-8.91-0.23-26.54-0.23-32.34s20.98-31.33,23.72-37.12"/>
	<path class="st4" d="M1092.74,667.51c0,0,3.94-4.09,12.67-5.4s15.17,0.86,20.93-2.02s9.36-4.52,13.61-4.09s14.39,4.06,16.85,4.4"/>
	<path class="st4" d="M1104.35,569.78c0,0,2.33-8.73-1.91-14.3c-2.28-2.99-4.19-11.38-9.11-11.93s-25.96-0.57-29.62,4.42
		s-2.56,6.99-0.78,11.48c1.78,4.49,5.54,2.16,8.29,2.86c2.75,0.7,13.02,0.25,15.95,2.95c2.93,2.7,3.71,9.37,3.58,12.99"/>
	<path class="st4" d="M1178.14,388.27c0,0-2.46-11.94-11.19-12.75c-8.73-0.81-9.21-0.46-18.5,5.18s-6.19,6.08-17.07,6.08
		c-10.88,0-21.5-7.06-23.15-8.97c-1.65-1.91-7.58-5.09-10.71-2.31c-3.12,2.78-8.85,7.87-13.89,0.87c-5.03-7-5.56-30.88-5.12-41.15"
		/>
	<path class="st4" d="M959.87,732.23c0,0,11.59,5.95,14.33,11.6s10.72,9.18,8.28,13.35c-2.9,4.97-2.63,5.4-2.63,10.44
		c0,5.05,0.05,12.65-1.13,16.28c-1.18,3.63,0.56,1.77,0.07,2.44"/>
	<path class="st4" d="M680.84,394.14c0,0,31.58,3.37,34.3-2.08c2.72-5.45,1.23-15.59,7.1-15.59c5.87,0,29.04-2.51,29.96-3.64"/>
	<path class="st4" d="M973.14,86.16c0,0-4.59,4.67-3.43,10.74c0.91,4.8,4.44,6.89-0.11,13.31s-9.08,8.2-9.49,15.26
		c-0.41,7.05,2.74,41.78,3.06,47.54c0.32,5.76-3.06,26.11-1.32,31.98"/>
</g>
<path class="st6" d="M1393.14,488.12C1394,451,1379,417,1357,387c-14-17-30-31-48.96-40.95"/>
<path class="st4" d="M975.2,648.3c0,0-9.23-1.25-10.04,0.21"/>
<path class="st7" d="M1429,1225c-1,1,0,3-1,4"/>
<path class="st7" d="M1438.21,914.64c3,6,5,11,6,17"/>
<g>
	<path class="st8" d="M1421.39,763.73c-1.89-7.73-5.05-15.15-9.31-21.87C1404,720,1391,701,1376,683c-15-17-33-28-47-47
		c-8-12-11-24-10-38c2-13,6-23,14-34c21-27,49-46,59.76-77.7c-0.39,0.71-0.82,1.4-1.29,2.06c-2.1-1.77-4.33-3.26-6.66-4.53
		c-1.37-0.43-2.76-0.87-4.16-1.31c-1.31-0.49-2.62-0.98-4-1.21c-2.85-0.84-5.78-1.63-8.83-2.31c-12.05-3.01-24.11-3.01-36.16-1
		c-0.38,0.04-0.76,0.1-1.14,0.15c-17.34,2-34.57,6.18-51.05,12.37c-0.35,0.55-0.88,1.12-1.51,1.66c-0.47,0.29-0.96,0.59-1.55,0.88
		c-0.87,0.33-1.72,0.64-2.57,0.95c-4.78,1.35-9.43,3.37-13.76,5.97c-0.61,0.36-1.22,0.73-1.82,1.14c-2.06,1.34-4.04,2.81-5.9,4.41
		c-6.43,5.51-11.59,12.48-15.03,20.21c-0.88,1.69-1.72,3.39-2.53,5.09c-0.23,1.38-0.46,2.77-0.8,4.15c-5,10-9,20-13,31
		c-10,28-41,38-68,39c-26.04,1.93-51.16-7.31-74.44-18.73c-0.5-0.2-0.99-0.38-1.49-0.58c-1.28-0.36-2.63-0.85-4.02-1.41
		c-2.02-0.38-4.03-0.6-6.05-1.27c-3.16-1.87-6.42-3.74-9.74-5.55c-0.53-0.21-1.06-0.43-1.6-0.64c-10.73-4.7-22.03-8.29-33.52-10.41
		c-3.14-0.66-6.3-1.26-9.48-1.74c-8.47-0.81-17.87-0.2-26.15,3.55c-3.4,1.54-6.57,3.68-9.27,6.26c-0.73,0.63-1.45,1.28-2.14,1.97
		c-1.88,2.26-3.25,4.54-4.17,6.82c-0.69,1.54-1.23,3.16-1.59,4.83c-0.18,2.05-0.04,4.17,0.34,6.28
		c1.72,11.31,11.69,22.09,20.7,30.62c0.9,0.92,1.8,1.84,2.7,2.76c0.67,1.2,1.59,2.64,2.64,4.1c0.26,0.39,0.54,0.77,0.83,1.13
		c0.3,0.39,0.62,0.78,0.93,1.17c0.1,0.22,0.14,0.47,0.16,0.73c0.46,0.69,0.91,1.39,1.35,2.11c6,12,9,27,3,40c-1,3-1,8-4,11
		c-4,5-6,9-10,14c-5,5-9,10-15,15c-30,22-59,35-89,57c-7.01,4.38-14.79,8-22.67,10.84c-1.94,1.22-3.89,2.44-5.83,3.67
		c-2.77,2.73-5.66,5.28-8.64,7.69c-0.15,0.2-0.31,0.4-0.46,0.61c-0.6,0.61-1.22,1.17-1.89,1.62c-0.72,0.41-1.43,0.83-2.14,1.25
		c-7.25,5.41-14.9,10.25-22.53,15.2c-2.83,2.11-5.66,4.26-8.51,6.43c-3.99,2.47-7.78,5.3-11.28,8.48c-1.39,1.08-2.55,2.28-3.59,3.52
		c-2.06,2.14-3.99,4.41-5.79,6.79c-5.07,3.89-9.34,8.29-13.16,13c-6.03,6.49-11.44,13.73-16.19,21.37
		c-3.12,5.02-5.94,10.25-8.45,15.62c-5.9,10.32-9.1,20.74-10.81,31.9c-0.11,1.04-0.21,2.08-0.31,3.12
		c-1.31,7.61-1.95,15.33-1.8,23.07c0.18,9.42,1.85,20.01,5.62,29.43c0.17,0.54,0.33,1.09,0.51,1.63c0.88,1.76,1.76,4.3,2.65,6.25
		c4.63,5.93,10.49,10.46,17.27,14.53c14,7,27,12,41,19c7,3,14,6,21,4c54-20,108-38,162-59c2-1,4-3,5-5c6-12,8-26,14-38
		c5-9,11-18,15-27c7-20,15-38,29-54c2-2,4-3,5-5c25-25,61-18,93-20c6,0,12-1,17-5c4-4,5-10,4-15c-3-10-5-26,8-29c11,2,21,6,32,8
		c7,1,15,1,22,0c9-2,17-6,22-14c4-8,4-19-2.7-26.34c0.07,0.24,0.14,0.48,0.21,0.73C1249,730,1250,723,1254,720c7-5,16-5,24-2
		c19,8,36,17,55,25c2,1,3,0,5,1c23,11,49,13,72.73,20.92c1.1,0.37,4.55,1.36,7.97,2.4c0.54,0.16,1.11,0.33,1.65,0.17
		C1421.74,767.08,1421.73,765.13,1421.39,763.73z"/>
	<path class="st9" d="M739,934c2-21,9-40,20-58c1-1,2-2,3-3c10-16,20-29,34-41c7.56-6.42,15.68-11.85,23.84-17.13
		c7.23-5.39,14.53-10.54,22.53-15.2c1.51-1.13,3.01-2.28,4.49-3.47c1.41-1.91,2.98-3.66,4.62-5.15c1.34-0.84,2.68-1.69,4.02-2.53
		c0.84-0.83,1.68-1.65,2.5-2.51c1.11-0.37,2.22-0.76,3.33-1.16c0.28-0.18,0.56-0.35,0.84-0.53c1.5-0.94,2.99-1.88,4.53-2.75
		c1.36-0.77,2.75-1.48,4.1-2.21c1.07-0.65,2.13-1.29,3.2-1.93c0.51-0.35,1-0.71,1.46-1.1c15.42-9.47,30.85-18.94,46-28.25
		c2.79-2.19,5.79-4.09,8.79-5.98c2.66-1.68,5.32-3.36,7.98-5.03c2.89-1.94,5.8-3.91,8.74-5.93c0.82-0.41,1.47-0.65,2.09-0.86
		c0.13-0.08,0.26-0.16,0.39-0.24c0.93-0.23,1.82-0.59,2.68-1c0.52-0.38,1.04-0.75,1.56-1.12c2.95-3.47,7.91-4.78,10.72-7.8
		c0.93-0.5,1.85-1.03,2.76-1.57c5.69-4.12,11.12-8.6,15.97-14.52c1.35-2.02,2.75-4,4.15-5.95c1.56-2.47,3.07-4.86,4.8-6.76
		c0.5-0.72,1-1.44,1.48-2.17c0.05-0.07,0.09-0.14,0.14-0.21c2.54-3.86,4.79-7.91,6.55-12.17c1.95-6.34,3.64-12.91,3.83-19.37
		c-0.05-2.06-0.25-4.1-0.65-6.08c-0.84-5.17-2.81-10.16-6.02-14.29c0.12-0.24,0.21-0.5,0.28-0.76c-0.02-0.45,0-0.91-0.04-1.35
		c-5.95-8.91-14.23-15.61-21.65-24.89c-7-10-10-23-3-33c2-1,3-3,5-5c24.72-18.54,54.12-8.23,79.26,5.45
		c0.34,0.14,0.69,0.27,1.03,0.42c3.48,1.45,6.93,2.99,10.38,4.52c1.48,0.66,2.95,1.31,4.39,1.89c0.98,0.18,1.97,0.4,2.95,0.73
		c0.85,0.42,1.7,0.85,2.56,1.27c10.93,4.31,21.97,8.32,32.8,11.94c1.27,0.37,2.56,0.73,3.84,1.06c0.79,0.2,1.58,0.39,2.37,0.58
		c0.31,0.07,0.61,0.15,0.92,0.22c2.45,0.57,4.91,1.07,7.37,1.51c0.19,0.03,0.38,0.07,0.56,0.1c0.76,0.13,1.52,0.25,2.28,0.37
		c0.71,0.11,1.42,0.23,2.14,0.33c0.27,0.04,0.54,0.07,0.81,0.11c3.68,0.49,7.37,0.84,11.06,1.04c3.72,0.18,7.44,0.2,11.16,0.02
		c5.29-0.44,10.78-0.69,16.21-1.34c1.65-0.25,3.3-0.52,4.94-0.84c5.39-1.08,10.63-2.84,15.61-5.16c3.96-2,7.7-4.13,11.15-6.52
		c3.12-2.23,6.05-4.71,8.76-7.43c2.96-3.13,5.54-6.69,7.62-10.86c0.44-1,0.87-2.01,1.29-3.02c1.65-4.23,3.32-8.43,5.03-12.62
		c3.2-8.3,6.4-16.7,10.32-24.93c0.44-2.62,0.89-5.23,2.2-7.85c22-37,68-43,106-48c13.51,1.69,29.16,1.95,41.81,8.83
		c1.49,0.47,2.97,0.93,4.43,1.38c0.65,0.18,1.3,0.35,1.95,0.53l0.01,0.05c0.53,0.15,1.05,0.31,1.58,0.46c0,0.02-0.01,0.03-0.01,0.05
		c3.44-6.16,4.34-14.13,5.24-21.3c0-14-2-28-12-39c-1-7-4-13-10-17c-13-8-24-15-38-21c-4-2-8-4-12-7c-11-7-23-10-35-15
		c-13-5-26-9-39-13c-10-3-19-4-29-7c-18-6-36-9-55-11c-14-1-27,1-39,9c-2,1-4,1-6,0c-4-2-7-6-13-7
		c-20.81-2.97-40.64-3.99-60.58-8.83c1.73,0.42,1.18,0.51,0.46,0.36c1.25,0.87,2.58,2.67,2.24,3.9c-0.57,2.08-2.96-3.72-3.24-4.39
		c2.8,7.61,5.64,15.56,5.78,23.75C1055,360,1052,369,1044,371c-11,4-21-3-28-12c-10-12-12-28-22-40c-3-2-7-3-10,0c-7,13-16,25-29,30
		c-25,8-51,11-73,25c-20,20-30,48-49,70c-8,17-19,31-29,47c-2,2-4,4-6,7c-19,31-38,59-65,84c-33,29-65,53-101,79c-12,8-23,16-36,23
		c-9,4-16,9-25,13c-10,4-19,9-30,11c-2,1-4,2-4,3c-1,8,1,16,2,24c0,3,0,6,0,9c6,62,2,122-5,183c-1,15,1,32,14,43c10,8,21,13,33,18
		c17,7,34,9,52,10c38,1,75-8,113-3c5.11,1.02,10.23,2.05,15.29,3.46c-1.61-1.09-3.12-2.3-4.52-3.63c-3.06-2.16-5.9-5.02-7.68-8.58
		c-0.12-0.25-0.25-0.51-0.37-0.78c-2.2-2.81-4.12-5.93-5.73-9.47C737,963,738,948,739,934z"/>
</g>
<g>
	<path class="st10" d="M1438.3,983.77c5.68-13.39,4.77-28.57,1.18-42.48c-3.59-13.91-9.68-27.03-14.34-40.62
		c-4.46-13-7.6-26.45-9.38-40.07c-2.74-23.02-0.27-46.11,7.32-67.4c0.79-7.41,1.11-13.99,0.76-20.54c-0.06-1.05-0.15-2.15-0.72-3.03
		c-1.11-1.7-3.47-1.9-5.5-1.92C1408,766,1400,762,1391,761c-4-1-8-2-12-4c-18-4-35-10-53-16c-14-5-26-14-39-20c-5-2-10-4-16-6
		c-6-1-12,0-17,4c-3,3-4,6-3,10c3,8,10,15,8,24c-2,8-7,15-15,19c-19,8-40,1-59-6c-7-2-13,5-15,12c-1,6,2,12,3,18c2,7-2,14-8,17
		c-21,8-44-1-67,2c-5,1-11,2-16,4s-9,5-14.9,5.99c1.89,0.85,3.79,1.57,5.7,2.2c11.78,2.9,24.38,5.03,32.21,14.81
		c1.15,1.57,2.11,3.19,2.92,4.84c2.2,3.44,3.69,7.22,4.08,11.16c1,11-1,22,1,33c1,6,3,12,8,16c4,3,8,6,12,8c9,3,18,3,27-1
		c2-1,5-2,7-3c11-7,20-17,27-28c2.44-4.07,3.57-8.8,5.53-13.12c0.16-0.62,0.33-1.25,0.47-1.88c0.21-0.13,0.42-0.23,0.63-0.32
		c0.12-0.22,0.23-0.46,0.37-0.68c6-1,9,5,11,10c0.35,2.12,0.45,4.37,0.34,6.65c0.13,1.86,0.07,3.69-0.34,5.35
		c-1.98,6.61-3.07,13.21-1.58,19.24c2.95,8.31,11.36,13.89,20.56,17.85c3.92,1.48,7.97,2.7,12.02,3.92
		c0.57,0.28,1.13,0.59,1.69,0.91c0.1,0.03,0.2,0.06,0.31,0.09c5.98,2.56,10.49,7.32,11.68,13.02c0.11,0.32,0.22,0.64,0.32,0.98
		c0.14,1.1,0.19,2.2,0.2,3.3c0.71,5.2,0.55,10.95-2.31,15.45c-0.35,1.75-0.66,3.5-0.88,5.25c-0.97,11.68-1.94,23.11-2.45,34.55
		c-0.18,8.28-0.21,16.54-0.21,24.82c0.13,3.86,0.34,7.73,0.67,11.63c0.78,9.37,0.94,18.74-0.92,28.11c0.19,3.02,0.56,5.63-1.08,8.89
		c-1.82,3.64-4.03,7.14-6.21,10.71c-2.25,4.27-4.66,8.5-6.79,13.29c-0.93,2.31-1.62,4.84-2.02,7.38
		c-0.86,11.83,4.07,21.72,9.02,31.62c1,3,2,5,2,8c4,41-2,83,10,123c10,10,26,6,38.79,7.26c22.59,2.22,47.1-0.87,71.13-4.95
		c12.85-1.86,24.53-8.29,33.79-16.86c9.27-8.58,16.35-19.23,22.73-30.13c19.04-28.5,24.3-64.98,13.97-96.79
		C1428.22,1081.2,1428.6,1031.55,1438.3,983.77z"/>
	<path class="st11" d="M1243.79,1087.71c1.97-3.74,3.81-7.5,5.21-11.71c0.88-2.63,1.55-5.26,2.08-7.89
		c-0.04-0.68-0.08-1.37-0.08-2.11c0.37-12.65,0.33-25.16,0.33-37.63c-0.28-8.33-0.16-16.57,0.21-24.82
		c0.28-12.78,0.93-25.59,2.45-38.55c0.32-0.4,0.61-0.82,0.88-1.25c1.02-5.15,2.32-10.3,2.31-15.45c-0.06-0.44-0.12-0.87-0.2-1.3
		c0-1.02-0.12-2.01-0.32-2.98c-2.03-5.85-6.87-10.22-11.99-13.12c-4.38-1.3-9.14-2.86-13.72-4.83c-5.75-2.18-11.22-4.92-15.98-9.08
		c-2.38-2.72-3.81-5.67-4.58-8.76c-1.26-3.55-1.52-7.6-0.42-12.24c1.29-3.88,2.16-8.17,2.34-12.35c-0.18-2.63-0.76-5.31-1.34-7.65
		c-1.91-3.83-5.66-10.4-10.37-8.32c-0.4,0.72-0.77,1.46-1.11,2.21c-3.22,12.18-9.96,22.61-18.53,32.12c-11,10-25,16-40,16
		c-14-1-26-11-28-25c-2.69-15.22,1.83-32.04-5.08-46.16c-3.38-5.3-8.46-9.81-13.92-12.84c-7.08-3.15-14.17-4.44-21.21-6.81
		c-0.26-0.07-0.53-0.13-0.79-0.19c-11,4-19,12-25,22c-17,26-29,51-40,78c-4,10-7,20-10,30c-2,6-8,9-13,11c-52,19-103,38-156,56
		c-2.19,0.55-4.38,0.78-6.53,0.62c-1.68-0.65-3.47-0.96-5.23-1.28C835,1033,847,1050,858,1069c4,6,9,11,13,17c10,19,20,36,34,52
		c23,25,40,52,61,79c2,2,4,3,5,5c4,4,9,7,14,8c32,4,63,1,95-5c19-4,36,3,53,9c19,8,37,18,56,26c21,7,41,15,62.51,15.96
		c2.58,0.11,6.38,0.26,10.16-0.02c-3.1-1.04-5.39-3.78-6.67-6.79c-1.28-3.01-1.68-6.3-2.08-9.55C1244,1224,1250,1187,1246,1151
		c-2-12-9-22-11-34c-0.54-2.69-0.48-5.66-0.02-8.62c0.01-0.13,0.01-0.26,0.02-0.38C1236.27,1100.36,1239.97,1093.94,1243.79,1087.71
		z"/>
</g>
<path class="st12" d="M998.09,89.58c-9.19-0.3-18.13-2.66-26.92-5.16c0.82,1.44,1.73-0.03,0,0C974,89,976,93,980,98c5,8,10,16,12,26
	c2,14-2,28-14,36c-23,15-49,6-74,10c-6,2-10,9-6,15c5,7,14,10,17,19c6,23,11,46,30,61c9,7,20,9,29,17c2,2,6,4,8,7c3,4,5,8,7,13
	c1,5,1,10,2,15c2,5,8,6,10,11c1,2,2,5,3,7c4,11,7,22,15,30c9,9,26,11,36,1c5-12-3-25-5-37c3.88-0.45,0.74,4.42,0,0c1,0,2,0,2,0
	s0,1,0,2c-1,0-3-1-2-1c6-2,11,3,17,3c13,0,26,1,39,2c5,1,10,1,13,7c1,2,4,3,7,2c11-5,22-10,34-9c71,4,140,29,201.87,65.2
	c0.21,0.17,0.48,0.23,0.74,0.33c0.34,0.13,0.64,0.34,0.94,0.54c0.8,0.53,1.64,1.01,2.51,1.43c0.5,0.24,1.02,0.48,1.42,0.86
	l-0.06,0.22c3.49,2.28,7.12,4.34,10.88,6.15c-1.62-2.76-3.24-5.53-4.86-8.29C1367,392,1361,383,1353,375c-1-1-1-3-2-4
	c-24-28-59-36-94-37c-5-1-12-1-16-5c-5-6-14-10-14-19c1-21,23-32,35-48c4-5,6-9,9-14c5-11,1-23-3-33c-16-14-13-38-4-55
	c4-7,6-17,0-23c-8-7-19-4-29-5c-5-1-9-4-12-8c-7-11-15-20-24-28c-1-1-3-1-4-2s-2-2-3-3c-3-1-5-3-7-5c-12-6-26-7-40-6
	c-34,3-66,8-100,11c-16,1-31,0-47.35-1.42"/>
<path class="st13" d="M542.27,154.5c0,0,47.94-40.8,52.75-44.2s17.6-10.72,20.45-12.29s49.74-24.19,52.87-25.47
	c3.13-1.28,31.77-11.87,34.06-12.45s35.12-9.81,38.75-10.26c4.52-0.56,32.06-4.73,36.92-5.14c4.67-0.39,36.46-1.94,39.43-1.81
	c2.97,0.12,39.64,1.61,42.43,2.23s39.02,8.42,42.77,9.74s22.05,8.74,24.63,9.93s20.62,10.51,22.91,11.74
	c2.29,1.23,17.67,6.97,19.04,7.48c1.37,0.51,2.38,1.06,2.97,2.18s7.2,11.13,8.16,12.52s6.91,11.62,7.52,13.18
	c0.63,1.61,3.08,7.65,3.61,10.02s0.96,3.68,0.96,5.67s0.44,4.88-0.05,7.01c-0.5,2.12-1.36,7.97-2.14,9.56
	c-0.78,1.59-4.01,8.09-4.9,8.98s-2.23,2.4-3.12,3.23s-6.86,5.42-7.9,5.97c-1.04,0.55-11.74,4.68-13.47,4.87
	c-1.73,0.19-15.29,1.91-16.94,1.91s-30.59-0.17-31.64,0.01c-1.05,0.18-7.51,0.44-8.42,0.84c-0.92,0.39-4.18,2.34-5.02,3.54
	c-0.84,1.2-2.4,4.17-2.48,5.57c-0.08,1.4,1.3,5.74,2.02,6.5c0.72,0.77,7.54,7.28,8.14,7.61c0.6,0.33,3.79,3.29,4.61,4.37
	s2.67,3.49,2.96,4.38c0.29,0.9,2.44,7.53,2.86,9.71c0.42,2.18,4.64,17.04,5.3,18.29s1.18,3.97,1.95,5.83s3.23,7.31,4.26,8.96
	c1.03,1.65,4.72,8.15,5.95,9.47c1.23,1.32,5.1,6.13,6.08,6.91c1.2,0.95,6.35,5.39,7.49,6.16s16.72,8.52,18.07,9.22
	c1.35,0.7,6.72,4.41,7.92,5.54s6.84,5.33,7.24,6.14s6.91,11.06,7.34,12.74c0.43,1.68,0.68,1.69,0.76,3.14
	c0.08,1.44,1.38,11.76,1.66,12.98s0.02,0.37-0.76,0.37c-0.78,0-1.87-0.23-2.52-0.19c-0.65,0.04-2.23,0.16-2.82,0.93
	c-0.59,0.78-1.49,1.53-1.76,2.24c-0.27,0.71-5.62,9.37-6,9.94c-0.38,0.57-5.7,7.03-6.3,7.7c-0.61,0.66-4.99,4.77-5.86,5.33
	c-0.87,0.56-8.47,5.1-8.82,5.23s-7.78,2.25-8.78,2.69c-1,0.44-27.9,7.42-29.4,7.84c-1.42,0.39-12.04,3.66-12.22,3.78
	c-0.18,0.12-13.1,5.32-14.21,5.82s-10.47,5.79-11.28,6.72c-0.81,0.93-5.06,6.21-6.09,7.38c-1.03,1.18-5.95,7.99-6.52,8.82
	s-5.82,8.98-6.55,10.11c-0.72,1.13-17.97,29.21-18.85,30.26c-0.88,1.05-8.06,11.03-8.74,11.57c-0.69,0.54-1.35,1.44-2,3.21
	c-0.65,1.77-8.52,15.12-9.01,15.97c-0.49,0.85-18.14,27.83-18.33,28.01c-0.19,0.19-5.83,6.33-6.39,7.54
	c-0.65,1.4-5.45,9.01-5.91,9.67c-0.45,0.66-21.2,31.56-21.92,32.27s-11.94,15.52-12.7,16.36c-0.76,0.84-14.83,16.39-15.76,17.33
	c-0.94,0.94-5.45,5.13-6.72,6.4c-0.98,0.98-13.48,11.58-14.2,12.38c-0.73,0.8-11.06,9.2-11.86,9.93c-0.8,0.73-10.57,8.47-11.46,9.16
	c-0.89,0.69-21.98,17.44-23.01,18.24c-1.03,0.8-58.96,42.21-59.88,42.88c-1.43,1.03-29.75,16.98-30.99,17.69
	c-1.51,0.86-20.85,10.2-22.28,10.67s-16.76,6.26-18.32,6.4c-1.56,0.14-3.65,0.93-4.61,1.88c-0.95,0.95-1,1.92-1.14,3.16
	c0,0-0.53,4.09-0.4,4.72s-1.37,1.76-1.95,0.23s-3.19-13.53-4-16s-3.9-13.27-4.73-14.61s-5.85-14.11-6.74-16.08
	c-0.89-1.97-9.56-21.42-10.47-22.73c-0.91-1.31-7.6-13.03-8.67-14.38c-1.07-1.35-6.79-11.38-7.72-12.4
	c-0.93-1.01-12.49-17.56-13.79-18.97c-1.3-1.41-21.31-24.4-22.17-24.89c-0.86-0.49-2.19-2.09-3.28-3.91
	c-1.09-1.82-3.31-7.56-4.09-8.98c-0.78-1.43-14.48-24.6-14.99-25.7c-0.51-1.1-6.36-12.82-6.75-14.41c-0.39-1.59-2.05-14.1-2-15.46
	s0.73-22.62,0.96-23.56c0.23-0.93,2.48-19.82,3.08-21.06c0.61-1.24,5.68-17.29,6.37-18.69s5.93-12.24,6.78-13.82
	s8.73-13.48,9.6-14.22c0.75-0.64,12.28-12.05,12.72-12.79s9.01-10.97,9.82-12.91c0.8-1.94,6.65-10.92,6.58-12.19
	s4.44-12.79,4.44-14.1s2.13-14.48,2.02-16.02c-0.11-1.54-0.03-12.87-0.3-14.33s-0.69-21.15-1.11-22.33
	c-0.41-1.19-2.42-26.06-2.91-27.47c-0.49-1.41-4.2-20.14-4.76-21.2c-0.56-1.06-6.27-21.78-6.92-23.3
	c-0.64-1.53-3.64-15.47-3.56-17.01s1.23-9.61,1.7-11.08s3.57-8.15,4.76-9.63c1.2-1.48,1.95-3.86,3.64-5.55
	c1.68-1.68,2.77-2.52,4.24-3.74c1.47-1.21,3.17-2.6,4.36-3.33s11.14-6.65,12.52-7.28c1.38-0.62,42.26-28.57,42.65-28.88
	L542.27,154.5z"/>
</svg>
